 <svg viewBox="0 0 600 400" fill="none" xmlns="http://www.w3.org/2000/svg">
    <path d="M460.8 344.704C447.056 331.336 446.816 310.656 450.4 292.704C450.992 289.704 451.2 286.472 453.048 284.056C454.896 281.64 458.56 280.376 461.048 282.088C463.12 283.512 463.672 286.28 464.576 288.64C465.784 291.787 467.855 294.53 470.552 296.552C472.312 297.856 474.552 298.856 476.656 298.152C479.488 297.136 480.384 293.592 480.856 290.592C481.726 284.992 482.6 279.392 483.48 273.792C483.952 270.792 484.448 267.72 485.84 264.992C487.232 262.264 489.736 259.992 492.72 259.656C495.704 259.32 498.968 261.544 499.12 264.576C499.176 265.84 498.72 267.072 498.6 268.328C498.48 269.584 498.832 271.064 499.96 271.6C501.088 272.136 502.44 271.496 503.48 270.76C507.072 268.232 509.808 264.672 512.408 261.112C515.008 257.552 517.56 253.912 520.904 251.04C524.248 248.168 528.568 246.24 532.904 246.664C537.24 247.088 541.392 250.52 541.792 254.92C542.192 259.32 539.024 263.216 535.776 266.2C530.966 270.634 525.539 274.347 519.664 277.224C518.608 277.744 517.464 278.304 516.92 279.352C515.944 281.248 517.52 283.544 519.384 284.52C521.504 285.632 523.968 285.792 526.264 286.456C528.56 287.12 530.92 288.552 531.448 290.912C532.176 294.176 529.088 296.976 526.216 298.672C520.474 302.066 514.19 304.445 507.64 305.704C505.304 306.152 502.84 306.504 500.832 307.744C498.824 308.984 497.28 311.528 498.016 313.816C498.752 316.104 501.392 317.232 503.776 317.184C506.16 317.136 508.432 316.208 510.768 315.736C515.152 314.856 520.432 316.008 522.488 320C523.848 322.624 523.464 325.912 522.128 328.568C520.792 331.224 518.624 333.328 516.376 335.24C508.504 341.92 499.024 346.784 488.912 348.536C478.8 350.288 469.792 349.752 460.856 344.728" fill="#20C77F" />
    <path d="M458.4 358.064C460.606 349.818 463.598 341.802 467.336 334.128C471.94 324.773 477.079 315.691 482.728 306.928L487.128 300C488.576 297.728 490.016 295.48 491.56 293.368C494.526 289.311 497.715 285.422 501.112 281.72C504.312 278.16 507.512 274.904 510.52 271.88C513.528 268.856 516.384 266.104 519.096 263.696C523.348 259.876 527.896 256.398 532.696 253.296C534.4 252.2 535.744 251.392 536.696 250.896L537.744 250.288C537.862 250.216 537.985 250.155 538.112 250.104C538.005 250.191 537.893 250.271 537.776 250.344L536.752 250.992C535.856 251.552 534.528 252.392 532.848 253.512C528.098 256.667 523.589 260.173 519.36 264C516.672 266.4 513.84 269.192 510.856 272.224C507.872 275.256 504.704 278.52 501.504 282.08C498.126 285.77 494.954 289.642 492 293.68C490.472 295.784 489.048 298.024 487.592 300.296C486.136 302.568 484.688 304.88 483.2 307.2C477.567 315.952 472.426 325.012 467.8 334.336C464.056 341.975 461.037 349.949 458.784 358.152" fill="#263238" />
    <path d="M491.728 293.36C491.651 292.922 491.622 292.476 491.64 292.032C491.64 291.176 491.64 289.944 491.64 288.408C491.696 285.352 491.928 281.136 492.2 276.488C492.472 271.84 492.648 267.624 492.664 264.576C492.664 263.048 492.664 261.816 492.664 260.96C492.628 260.517 492.645 260.071 492.712 259.632C492.817 260.064 492.873 260.507 492.88 260.952C492.96 261.8 493.024 263.04 493.064 264.568C493.152 267.624 493.064 271.856 492.768 276.512C492.472 281.168 492.232 285.256 492.04 288.424C491.96 289.856 491.896 291.064 491.848 292.04C491.854 292.483 491.813 292.925 491.728 293.36Z" fill="#263238" />
    <path d="M531.488 292.44C530.954 292.466 530.418 292.442 529.888 292.368C528.88 292.296 527.424 292.184 525.632 292.104C522.032 291.904 517.056 291.816 511.56 291.952C506.064 292.088 501.096 292.44 497.504 292.792C495.712 292.952 494.304 293.128 493.264 293.24C492.736 293.331 492.2 293.371 491.664 293.36C492.164 293.196 492.678 293.081 493.2 293.016C494.192 292.84 495.6 292.608 497.432 292.392C501.024 291.936 506 291.528 511.52 291.384C516.224 291.251 520.931 291.357 525.624 291.704C527.424 291.84 528.88 292.008 529.88 292.152C530.425 292.192 530.964 292.288 531.488 292.44Z" fill="#263238" />
    <path d="M467.937 333.496C467.937 333.496 467.849 333.328 467.745 332.984C467.641 332.64 467.489 332.08 467.313 331.48C466.945 330.176 466.457 328.28 465.889 325.88C464.745 321.16 463.377 314.584 461.961 307.312C460.545 300.04 459.241 293.456 458.201 288.712C457.689 286.408 457.265 284.512 456.945 283.112C456.817 282.496 456.705 281.992 456.617 281.584C456.567 281.407 456.54 281.224 456.537 281.04C456.537 281.04 456.625 281.208 456.729 281.552C456.833 281.896 456.985 282.456 457.161 283.056C457.529 284.36 458.017 286.256 458.585 288.656C459.721 293.376 461.097 299.952 462.513 307.232C463.929 314.512 465.233 321.08 466.273 325.824L467.521 331.424C467.657 332.032 467.769 332.544 467.857 332.952C467.907 333.129 467.934 333.312 467.937 333.496Z" fill="#263238" />
    <path d="M521.896 325.328C521.721 325.393 521.538 325.436 521.352 325.456L519.752 325.712L513.968 326.592C509.088 327.344 502.36 328.456 494.928 329.688C487.496 330.92 480.8 332 475.88 332.624C473.432 332.952 471.448 333.192 470.072 333.328L468.472 333.48C468.289 333.51 468.103 333.51 467.92 333.48C468.095 333.413 468.278 333.37 468.464 333.352L470.064 333.096L475.84 332.216C480.72 331.464 487.456 330.352 494.888 329.12C502.32 327.888 509.064 326.832 513.968 326.184C516.416 325.856 518.4 325.616 519.776 325.48L521.376 325.328C521.549 325.306 521.723 325.306 521.896 325.328Z" fill="#263238" />
    <path d="M91.6962 281.6C96.0242 280.44 100.76 281.536 104.568 283.888C108.322 286.382 111.453 289.705 113.72 293.6C118.32 300.952 119.896 310.8 120.048 319.472C110.448 319.024 102.256 311.416 98.3522 307.296C92.1842 300.784 84.9762 285.272 91.6962 281.632" fill="#20C77F" />
    <path d="M135.497 325.312C131.561 322.224 129.825 316.784 130.697 311.856C131.195 309.397 132.179 307.061 133.589 304.985C135 302.91 136.81 301.136 138.913 299.768C140.825 298.464 143.201 297.44 145.417 298.112C146.439 298.488 147.342 299.132 148.03 299.977C148.718 300.821 149.167 301.835 149.329 302.912C149.634 305.079 149.358 307.287 148.529 309.312C146.057 316.312 142.385 322.632 135.497 325.376" fill="#20C77F" />
    <path d="M144.233 352.744C143.842 352.274 143.519 351.752 143.273 351.192C142.721 350.168 141.937 348.664 141.033 346.784C138.573 341.885 136.781 336.679 135.705 331.304C134.569 324.904 135.401 318.936 137.001 315.024C137.593 313.463 138.384 311.984 139.353 310.624C139.673 310.102 140.076 309.634 140.545 309.24C140.713 309.344 139.001 311.36 137.641 315.264C135.988 320.389 135.652 325.847 136.665 331.136C137.737 336.43 139.412 341.583 141.657 346.496C143.313 350.32 144.361 352.68 144.233 352.744Z" fill="#263238" />
    <path d="M98.2246 292.928C98.9833 293.585 99.6821 294.307 100.313 295.088C101.609 296.52 103.449 298.624 105.697 301.248C110.185 306.488 116.273 313.84 122.801 322.12C129.329 330.4 135.033 338.04 139.081 343.64C141.105 346.44 142.721 348.72 143.809 350.32C144.413 351.115 144.949 351.961 145.409 352.848C144.71 352.13 144.071 351.357 143.497 350.536L138.521 344.048C134.337 338.56 128.537 330.992 122.025 322.72C115.513 314.448 109.513 307.04 105.161 301.688L100.001 295.328C99.3442 294.578 98.7502 293.775 98.2246 292.928Z" fill="#263238" />
    <path d="M129 336C124.838 332.73 119.956 330.499 114.76 329.492C109.564 328.485 104.202 328.73 99.12 330.208C96.552 331.008 93.696 332.552 93.44 335.224C93.184 337.896 95.688 340.024 98.104 341.2C103.181 343.609 108.858 344.462 114.418 343.651C119.979 342.839 125.175 340.4 129.352 336.64" fill="#20C77F" />
    <path d="M105.512 335.104C106.042 334.856 106.605 334.686 107.184 334.6C107.846 334.431 108.52 334.308 109.2 334.232C110.092 334.088 110.992 333.994 111.896 333.952C114.255 333.817 116.622 333.922 118.96 334.264C124.713 335.103 130.192 337.272 134.96 340.6C136.896 341.952 138.692 343.496 140.32 345.208C140.956 345.854 141.551 346.538 142.104 347.256C142.548 347.775 142.955 348.326 143.32 348.904C143.681 349.361 143.975 349.867 144.192 350.408C144.04 350.52 142.664 348.448 139.832 345.688C138.171 344.082 136.372 342.625 134.456 341.336C132.09 339.786 129.579 338.467 126.96 337.4C124.323 336.384 121.592 335.632 118.808 335.152C116.526 334.776 114.216 334.605 111.904 334.64C108 334.72 105.552 335.288 105.512 335.104Z" fill="#263238" />
    <path d="M237.111 75.3359L230.399 80.9359L227.135 79.4799L226.463 76.7119C226.463 76.7119 233.663 71.3919 233.399 71.1119C232.726 70.4659 231.855 70.0656 230.927 69.9759C229.197 69.7525 227.449 70.2211 226.063 71.2799L224.799 72.2319C223.64 73.0828 222.74 74.2384 222.199 75.5703C221.658 76.9022 221.497 78.3581 221.735 79.7759C221.746 79.8594 221.762 79.9422 221.783 80.0239L201.887 96.5599C200.546 96.1148 199.095 96.126 197.761 96.5918C196.427 97.0576 195.285 97.9518 194.512 99.1349C193.739 100.318 193.38 101.724 193.49 103.132C193.6 104.541 194.173 105.874 195.12 106.923C196.067 107.972 197.334 108.678 198.724 108.931C200.115 109.184 201.549 108.97 202.805 108.322C204.061 107.674 205.067 106.629 205.666 105.349C206.266 104.069 206.425 102.627 206.119 101.248L225.791 84.7359C226.572 85.4164 227.579 85.7815 228.615 85.7599C229.604 85.7788 230.587 85.5971 231.504 85.2259C232.421 84.8546 233.253 84.3015 233.951 83.5999L235.615 81.9999C236.441 81.1265 237.016 80.0464 237.279 78.8736C237.542 77.7007 237.484 76.4786 237.111 75.3359ZM198.711 105.312C198.18 105.076 197.731 104.687 197.421 104.196C197.111 103.704 196.954 103.132 196.969 102.551C196.985 101.97 197.173 101.407 197.508 100.933C197.844 100.458 198.313 100.094 198.856 99.887C199.399 99.6795 199.991 99.6378 200.558 99.7671C201.124 99.8964 201.64 100.191 202.039 100.613C202.438 101.036 202.702 101.567 202.799 102.14C202.896 102.713 202.821 103.302 202.583 103.832C202.425 104.187 202.199 104.507 201.917 104.774C201.635 105.041 201.303 105.249 200.94 105.387C200.577 105.524 200.19 105.589 199.802 105.576C199.414 105.563 199.032 105.473 198.679 105.312H198.711Z" fill="#20C77F" />
    <path d="M267.199 113.496L245.775 115.288L245.847 115.248C242.193 119.622 237.642 123.16 232.502 125.624C227.362 128.087 221.754 129.419 216.055 129.528C211.334 129.593 206.637 128.849 202.167 127.328C197.333 125.672 192.867 123.094 189.015 119.736C184.801 116.077 181.398 111.577 179.027 106.525C176.656 101.472 175.368 95.9797 175.247 90.4C175.191 89.6704 175.191 88.9376 175.247 88.208C175.247 87.48 175.327 86.744 175.359 86.008C175.405 85.272 175.498 84.5398 175.639 83.816L175.999 81.6C176.151 80.872 176.359 80.152 176.535 79.432C176.711 78.712 176.879 77.968 177.127 77.264C177.375 76.56 177.639 75.856 177.927 75.152L178.311 74.088C178.439 73.736 178.631 73.4 178.783 73.056C181.172 67.811 184.649 63.1342 188.983 59.336C193.041 55.7516 197.792 53.0381 202.941 51.3635C208.091 49.6888 213.529 49.0886 218.919 49.6C225.829 50.2421 232.453 52.6676 238.144 56.6391C243.835 60.6106 248.397 65.9918 251.383 72.256C251.844 73.1325 252.239 74.0416 252.567 74.976C252.895 75.896 253.239 76.792 253.543 77.696C254.06 79.4603 254.464 81.256 254.751 83.072C254.871 83.952 255.039 84.808 255.111 85.664C255.183 86.52 255.191 87.368 255.231 88.192C255.231 88.608 255.231 88.992 255.295 89.424C255.359 89.856 255.255 90.224 255.239 90.632C255.239 91.432 255.167 92.232 255.127 92.968V92.896C262.719 105.792 266.807 112.728 267.247 113.488L254.927 93.024C254.959 92.2666 254.991 91.4906 255.023 90.696C255.023 90.296 255.063 89.896 255.071 89.496C255.079 89.096 255.031 88.696 255.007 88.272C254.967 87.472 254.919 86.616 254.879 85.76C254.839 84.904 254.623 84.064 254.503 83.184C254.216 81.3838 253.812 79.6041 253.295 77.856C252.991 76.96 252.647 76.072 252.311 75.16C251.983 74.2349 251.59 73.3341 251.135 72.464C248.513 66.9279 244.642 62.076 239.827 58.2903C235.011 54.5045 229.382 51.8882 223.384 50.6474C217.385 49.4066 211.181 49.5752 205.259 51.1398C199.336 52.7044 193.858 55.6224 189.255 59.664C184.971 63.4333 181.535 68.0687 179.175 73.264C179.015 73.608 178.831 73.928 178.703 74.28L178.319 75.336L177.519 77.424C177.271 78.128 177.135 78.856 176.935 79.568C176.735 80.28 176.551 80.992 176.399 81.712C176.247 82.432 176.183 83.168 176.071 83.888C175.937 84.6072 175.846 85.3338 175.799 86.064C175.759 86.792 175.719 87.512 175.687 88.24C175.635 88.9617 175.635 89.6862 175.687 90.408C175.869 98.5006 178.519 106.344 183.283 112.889C188.048 119.433 194.698 124.365 202.343 127.024C206.771 128.533 211.425 129.277 216.103 129.224C221.756 129.125 227.322 127.817 232.428 125.389C237.533 122.96 242.06 119.467 245.703 115.144H245.751L267.199 113.496Z" fill="#323539" />
    <path d="M453.768 145.992H150.656C144.219 145.992 139 151.211 139 157.648V350.2C139 356.637 144.219 361.856 150.656 361.856H453.768C460.205 361.856 465.424 356.637 465.424 350.2V157.648C465.424 151.211 460.205 145.992 453.768 145.992Z" fill="#252525" />
    <path d="M125.809 345.888H479.465V350.536C479.465 354.313 477.964 357.935 475.294 360.605C472.623 363.276 469.001 364.776 465.225 364.776H140.049C138.179 364.776 136.327 364.408 134.599 363.692C132.872 362.976 131.302 361.927 129.979 360.605C128.657 359.283 127.608 357.713 126.893 355.985C126.177 354.258 125.809 352.406 125.809 350.536V345.888Z" fill="#252525" />
    <path d="M456.209 154.568H148.225V336.856H456.209V154.568Z" fill="#E2EFFF" />
    <path d="M270.488 345.888H271.864H275.864L290.784 345.824L340.68 345.72H341.048L340.864 346.04C340.24 347.112 339.56 348.264 338.888 349.432C338.216 350.6 337.464 351.832 336.792 353.016L336.728 353.12H336.608L274.856 353.008H274.8V352.96L271.6 347.704L270.8 346.368L270.536 345.928L270.848 346.392C271.048 346.712 271.336 347.152 271.712 347.728C272.464 348.904 273.576 350.624 275.008 352.864L274.928 352.816L336.68 352.704L336.496 352.808L338.592 349.216C339.272 348.056 339.944 346.896 340.576 345.824L340.752 346.144L291.064 346.032L276 345.936H271.912H270.848L270.488 345.888Z" fill="#263238" />
    <path fill-rule="evenodd" clip-rule="evenodd" d="M260.921 188.48C261.483 187.732 262.142 187.062 262.881 186.488L262.417 183.936L266.361 182.248L267.881 184.352C268.807 184.228 269.746 184.228 270.673 184.352L272.145 182.224L276.145 183.824L275.737 186.384C276.483 186.948 277.153 187.607 277.729 188.344L280.281 187.88L281.969 191.824L279.865 193.344C279.989 194.27 279.989 195.209 279.865 196.136L281.993 197.616L280.393 201.616L277.841 201.208C277.277 201.957 276.618 202.629 275.881 203.208L276.345 205.752L272.401 207.44L270.881 205.336C269.952 205.46 269.01 205.46 268.081 205.336L266.609 207.472L262.609 205.872L263.017 203.312C262.266 202.75 261.593 202.091 261.017 201.352L258.473 201.816L256.801 197.84L258.905 196.32C258.777 195.394 258.777 194.454 258.905 193.528L256.801 192.048L258.401 188.048L260.961 188.456L260.921 188.48ZM265.193 192.912C264.848 193.754 264.761 194.678 264.942 195.57C265.123 196.461 265.565 197.278 266.21 197.919C266.856 198.559 267.676 198.994 268.569 199.169C269.461 199.343 270.386 199.249 271.225 198.898C272.064 198.547 272.78 197.955 273.283 197.198C273.786 196.44 274.053 195.55 274.05 194.641C274.048 193.731 273.776 192.843 273.268 192.088C272.761 191.334 272.042 190.746 271.201 190.4C270.641 190.17 270.042 190.052 269.437 190.054C268.832 190.055 268.234 190.176 267.676 190.41C267.118 190.643 266.611 190.984 266.185 191.414C265.759 191.843 265.422 192.352 265.193 192.912Z" fill="#CECECE" />
    <path fill-rule="evenodd" clip-rule="evenodd" d="M244.929 271.2C246.557 269.029 248.464 267.081 250.601 265.408L249.249 258.016L260.681 253.144L265.089 259.232C267.774 258.84 270.499 258.807 273.193 259.136L277.457 252.96L288.993 257.6L287.801 265.008C289.974 266.634 291.922 268.541 293.593 270.68L300.985 269.336L305.857 280.8L299.769 285.2C300.162 287.885 300.192 290.611 299.857 293.304L306.041 297.576L301.401 309.104L293.993 307.912C292.367 310.085 290.46 312.033 288.321 313.704L289.665 321.096L278.233 325.976L273.833 319.888C271.147 320.277 268.422 320.307 265.729 319.976L261.465 326.152L249.929 321.52L251.121 314.104C248.946 312.48 246.998 310.573 245.329 308.432L237.937 309.784L233.057 298.352L239.145 293.944C238.755 291.261 238.726 288.539 239.057 285.848L232.881 281.6L237.513 270.064L244.929 271.256V271.2ZM257.297 284.048C256.313 286.495 256.077 289.18 256.618 291.761C257.16 294.343 258.455 296.706 260.34 298.551C262.224 300.397 264.614 301.642 267.206 302.129C269.799 302.617 272.477 302.324 274.904 301.289C277.33 300.254 279.395 298.523 280.837 296.314C282.279 294.105 283.034 291.518 283.005 288.881C282.977 286.243 282.168 283.673 280.679 281.496C279.19 279.318 277.089 277.631 274.641 276.648C273.015 275.996 271.277 275.67 269.525 275.69C267.774 275.71 266.043 276.074 264.433 276.763C262.822 277.452 261.363 278.451 260.138 279.704C258.914 280.956 257.949 282.438 257.297 284.064V284.048Z" fill="#E2EFFF" />
    <path d="M194 293.72C194.178 293.146 194.448 292.606 194.8 292.12C195.762 290.731 197.176 289.719 198.8 289.256C200.013 288.904 201.296 288.866 202.527 289.146C203.759 289.426 204.899 290.014 205.84 290.856C206.393 291.335 206.868 291.896 207.248 292.52C207.652 293.165 207.952 293.87 208.136 294.608C208.546 296.17 208.442 297.822 207.84 299.321C207.238 300.819 206.169 302.084 204.792 302.928C203.521 303.721 202.041 304.114 200.544 304.056C199.19 304.008 197.874 303.593 196.736 302.856C195.534 302.076 194.582 300.967 193.993 299.66C193.404 298.354 193.204 296.905 193.416 295.488C193.499 294.881 193.68 294.292 193.952 293.744C193.796 294.326 193.671 294.916 193.576 295.512C193.389 297.142 193.749 298.789 194.6 300.192C195.223 301.222 196.094 302.08 197.134 302.686C198.174 303.293 199.349 303.629 200.552 303.664C201.964 303.705 203.356 303.326 204.552 302.576C205.858 301.781 206.873 300.587 207.449 299.172C208.025 297.756 208.131 296.193 207.752 294.712C207.407 293.328 206.658 292.078 205.6 291.12C204.642 290.262 203.475 289.672 202.216 289.408C201.117 289.183 199.98 289.219 198.896 289.512C197.301 289.929 195.893 290.87 194.896 292.184C194.264 293.12 194.048 293.744 194 293.72Z" fill="#263238" />
    <path d="M187.202 286.616H186.946L186.146 286.512L183.074 286.056L183.146 286.008L180.618 292.408L180.578 292.28L184.01 294.624L184.066 294.672V294.744C183.892 296.223 183.913 297.718 184.13 299.192V299.272L184.058 299.328L180.698 301.768L180.746 301.592L183.466 307.904L183.282 307.808L187.37 307.056H187.474L187.538 307.144C188.461 308.314 189.537 309.356 190.738 310.24L190.834 310.304V310.416C190.634 311.688 190.41 313.088 190.186 314.52L190.066 314.312L196.466 316.872L196.234 316.944L198.594 313.52L198.658 313.424H198.778C200.251 313.601 201.741 313.582 203.21 313.368H203.33L203.402 313.464L205.842 316.832L205.594 316.768L211.922 314.064L211.794 314.296C211.554 313 211.306 311.608 211.05 310.208V310.08L211.146 310C212.314 309.09 213.355 308.027 214.242 306.84L214.322 306.736H214.45L218.554 307.4L218.322 307.528C219.186 305.395 220.042 303.261 220.89 301.128L220.962 301.376L217.546 298.976L217.442 298.904V298.784C217.621 297.311 217.605 295.821 217.394 294.352V294.232L217.498 294.16L220.866 291.76L220.794 292L218.106 285.672L218.322 285.792L214.226 286.528H214.114L214.042 286.432C213.117 285.26 212.041 284.216 210.842 283.328L210.754 283.264V283.152C210.986 281.744 211.202 280.384 211.418 279.048L211.53 279.24L205.13 276.664L205.322 276.608L202.922 280.016L202.866 280.096H202.778C201.301 279.899 199.806 279.899 198.33 280.096H198.25L198.202 280.032C197.322 278.808 196.522 277.704 195.802 276.656L195.946 276.696L189.602 279.408L189.658 279.304C189.946 280.904 190.186 282.28 190.378 283.4V283.44C189.489 284.13 188.667 284.902 187.922 285.744L187.386 286.384L187.202 286.592C187.245 286.51 187.296 286.433 187.354 286.36C187.466 286.208 187.634 285.984 187.866 285.696C188.583 284.829 189.387 284.039 190.266 283.336V283.4C190.05 282.288 189.802 280.944 189.466 279.312V279.24H189.538L195.85 276.512H195.946L196.002 276.592L198.45 279.952L198.314 279.896C199.811 279.673 201.331 279.652 202.834 279.832L202.698 279.896C203.442 278.808 204.218 277.672 205.05 276.472L205.122 276.368L205.242 276.416L211.642 278.968L211.778 279.016V279.152C211.562 280.488 211.346 281.848 211.122 283.256L211.05 283.08C212.268 283.999 213.36 285.075 214.298 286.28L214.114 286.216L218.202 285.464H218.354L218.418 285.608C219.287 287.667 220.188 289.773 221.122 291.928L221.186 292.08L221.05 292.176L217.69 294.576L217.77 294.384C217.99 295.887 218.006 297.413 217.818 298.92L217.73 298.728L221.154 301.088L221.29 301.184L221.226 301.336L218.666 307.736L218.602 307.888H218.434L214.33 307.232L214.538 307.144C213.617 308.359 212.541 309.448 211.338 310.384L211.41 310.176C211.666 311.584 211.922 312.976 212.162 314.264V314.432L212.002 314.4L205.674 317.096L205.522 317.16L205.426 317.032L203.026 313.656L203.218 313.744C201.714 313.957 200.189 313.97 198.682 313.784L198.874 313.704L196.474 317.12L196.386 317.248L196.242 317.192L189.842 314.616L189.698 314.56V314.408C189.93 312.984 190.162 311.584 190.362 310.312L190.434 310.488C189.23 309.567 188.154 308.491 187.234 307.288L187.402 307.352L183.314 308.088H183.186L183.13 307.968C182.186 305.744 181.292 303.632 180.45 301.632L180.402 301.528L180.498 301.456L183.874 299.056L183.818 299.192C183.605 297.694 183.591 296.174 183.778 294.672L183.834 294.792L180.426 292.392L180.354 292.344V292.264C181.418 289.672 182.29 287.528 182.954 285.864V285.816H183.002L186.042 286.336L186.842 286.48L187.202 286.616Z" fill="#263238" />
    <path fill-rule="evenodd" clip-rule="evenodd" d="M171.536 202.192C172.838 198.677 174.609 195.353 176.8 192.312L172.104 183.072L185.296 172.128L193.512 178.448C196.906 176.874 200.495 175.763 204.184 175.144L207.384 165.296L224.448 166.896L225.792 177.168C229.295 178.467 232.61 180.226 235.648 182.4L244.888 177.712L255.824 190.904L249.512 199.112C251.074 202.503 252.18 206.086 252.8 209.768L262.64 212.968L261.04 230.032L250.768 231.368C249.496 234.883 247.758 238.211 245.6 241.264L250.288 250.504L237.096 261.448L228.88 255.136C225.48 256.698 221.885 257.796 218.192 258.4L214.992 268.248L197.928 266.648L196.584 256.384C193.07 255.103 189.742 253.36 186.688 251.2L177.456 255.888L166.512 242.696L172.8 234.488C171.232 231.092 170.121 227.504 169.496 223.816L159.656 220.616L161.256 203.552L171.52 202.208L171.536 202.192ZM192.936 214.304C192.595 217.929 193.337 221.574 195.069 224.777C196.8 227.98 199.443 230.597 202.662 232.297C205.882 233.998 209.534 234.705 213.155 234.329C216.777 233.953 220.205 232.511 223.007 230.185C225.809 227.86 227.857 224.756 228.894 221.265C229.931 217.775 229.908 214.056 228.83 210.578C227.752 207.1 225.666 204.021 222.837 201.729C220.008 199.437 216.562 198.037 212.936 197.704C208.084 197.259 203.253 198.757 199.504 201.869C195.754 204.981 193.393 209.453 192.936 214.304Z" fill="#CECECE" />
    <path d="M465.425 345.888C465.425 346 392.345 346.088 302.225 346.088C212.105 346.088 139.025 346 139.025 345.888C139.025 345.776 212.089 345.696 302.225 345.696C392.361 345.696 465.425 345.784 465.425 345.888Z" fill="#263238" />
    <path d="M289.857 100.632C284.825 102.84 281.897 108.272 280.801 113.656C279.705 119.04 280.057 124.608 279.585 130.088C279.113 135.568 277.609 141.288 273.609 145.056C269.881 148.576 264.401 150.008 261.225 154.032C260.04 155.53 259.255 157.305 258.944 159.189C258.632 161.074 258.805 163.006 259.444 164.806C260.084 166.606 261.17 168.214 262.601 169.479C264.032 170.744 265.761 171.625 267.625 172.04C265.113 176.04 266.369 181.568 269.585 185C272.801 188.432 277.513 190.072 282.161 190.776C290.337 192.024 299.057 190.648 305.961 186.096C312.865 181.544 317.697 173.64 317.681 165.376" fill="#263238" />
    <path d="M268.056 181.896C267.669 181.351 267.369 180.749 267.168 180.112C266.604 178.371 266.493 176.515 266.848 174.72C267.081 173.479 267.468 172.273 268 171.128C268.64 169.834 269.415 168.611 270.312 167.48C272.446 164.982 274.758 162.642 277.232 160.48C279.634 158.262 281.881 155.883 283.96 153.36C285.661 151.303 287.109 149.05 288.272 146.648C289.046 145.027 289.631 143.322 290.016 141.568C290.168 140.952 290.208 140.456 290.28 140.128C290.297 139.956 290.335 139.787 290.392 139.624C290.41 139.794 290.41 139.966 290.392 140.136C290.344 140.472 290.328 140.976 290.2 141.6C289.871 143.385 289.317 145.122 288.552 146.768C287.418 149.209 285.983 151.499 284.28 153.584C282.209 156.141 279.958 158.547 277.544 160.784C275.078 162.931 272.768 165.252 270.632 167.728C269.739 168.827 268.969 170.021 268.336 171.288C267.797 172.399 267.402 173.573 267.16 174.784C266.785 176.541 266.851 178.363 267.352 180.088C267.551 180.704 267.786 181.308 268.056 181.896Z" fill="#455A64" />
    <path d="M350.034 118.704C350.034 126.096 353.442 132.872 356.506 135.368C360.85 138.888 367.218 140.592 371.41 141.768C377.522 143.472 382.61 148.824 383.41 155.128C384.21 161.432 380.05 168.16 373.906 169.744C377.77 173.688 376.618 180.472 373.442 184.944C367.418 193.496 355.394 196.784 345.442 193.616C335.49 190.448 327.842 181.616 324.85 171.592" fill="#263238" />
    <path d="M365.233 191.52C366.078 191.337 366.878 190.986 367.585 190.488C368.4 189.891 369.072 189.121 369.553 188.232C370.205 187.066 370.568 185.76 370.609 184.424C370.6 182.807 370.172 181.219 369.369 179.816C368.444 178.199 367.226 176.77 365.777 175.6C362.745 173.048 358.625 171.456 354.641 169.2C352.677 168.096 350.896 166.695 349.361 165.048C348.631 164.253 348.01 163.365 347.513 162.408C347.041 161.489 346.691 160.513 346.473 159.504C346.117 157.638 346.03 155.73 346.217 153.84C346.353 152.072 346.577 150.448 346.729 148.952C347.074 146.615 347.036 144.237 346.617 141.912C346.513 141.512 346.417 141.16 346.329 140.84C346.241 140.52 346.113 140.288 346.041 140.08C345.951 139.874 345.874 139.663 345.809 139.448C345.93 139.637 346.032 139.838 346.113 140.048C346.201 140.256 346.337 140.496 346.441 140.8L346.769 141.88C347.254 144.217 347.336 146.62 347.009 148.984C346.873 150.48 346.665 152.112 346.545 153.864C346.373 155.735 346.47 157.621 346.833 159.464C347.272 161.471 348.245 163.323 349.649 164.824C351.16 166.439 352.912 167.812 354.841 168.896C358.785 171.16 362.929 172.776 366.041 175.392C367.518 176.595 368.756 178.066 369.689 179.728C370.515 181.191 370.94 182.847 370.921 184.528C370.867 185.906 370.474 187.25 369.777 188.44C369.263 189.342 368.555 190.118 367.705 190.712C367.164 191.075 366.566 191.345 365.937 191.512C365.703 191.538 365.467 191.541 365.233 191.52Z" fill="#455A64" />
    <path d="M379.632 166.856C380.075 166.257 380.335 165.543 380.384 164.8C380.411 163.932 380.213 163.072 379.808 162.304C379.296 161.278 378.513 160.413 377.544 159.8C376.325 159.115 374.987 158.667 373.6 158.48C372.112 158.216 370.488 158.12 368.8 157.856C365.096 157.264 361.565 155.868 358.456 153.768C355.34 151.671 352.728 148.909 350.808 145.68C349.263 143.041 348.201 140.148 347.672 137.136C347.301 135.113 347.191 133.051 347.344 131C347.38 130.445 347.444 129.892 347.536 129.344C347.551 129.151 347.588 128.96 347.648 128.776C347.688 128.776 347.552 129.576 347.496 131.016C347.282 136.091 348.54 141.12 351.12 145.496C353.03 148.661 355.607 151.372 358.672 153.44C361.739 155.504 365.211 156.887 368.856 157.496C370.536 157.768 372.168 157.88 373.656 158.152C375.069 158.361 376.427 158.842 377.656 159.568C378.663 160.212 379.467 161.127 379.976 162.208C380.38 163.012 380.562 163.91 380.504 164.808C380.457 165.375 380.276 165.924 379.976 166.408C379.872 166.56 379.768 166.672 379.704 166.752L379.632 166.856Z" fill="#455A64" />
    <path d="M293.448 205.368C294.504 194.32 295.408 182.672 295.408 182.672C295.408 182.672 281.416 178.912 280.296 160.056C279.224 142.08 286.16 101.488 286.16 101.488C307.464 95.152 331.176 103.088 344.16 120.92L334.128 210.52C332.968 220.92 323.096 228.2 311.968 226.864C300.736 225.512 292.448 215.896 293.448 205.368Z" fill="#B78876" />
    <path d="M288.288 133.936C288.224 134.554 288.403 135.174 288.786 135.663C289.17 136.153 289.728 136.474 290.344 136.56C290.645 136.615 290.953 136.609 291.251 136.542C291.549 136.475 291.831 136.349 292.079 136.172C292.328 135.994 292.538 135.769 292.698 135.508C292.857 135.248 292.963 134.958 293.008 134.656C293.072 134.037 292.894 133.418 292.51 132.929C292.127 132.439 291.568 132.118 290.952 132.032C290.652 131.977 290.343 131.983 290.045 132.05C289.747 132.116 289.466 132.242 289.217 132.42C288.969 132.598 288.758 132.823 288.599 133.084C288.439 133.344 288.334 133.634 288.288 133.936Z" fill="#263238" />
    <path d="M284.689 130.888C284.953 131.232 286.889 130.088 289.449 130.328C292.009 130.568 293.761 132.056 294.073 131.768C294.225 131.64 293.977 131.056 293.217 130.376C292.184 129.498 290.904 128.961 289.553 128.84C288.226 128.702 286.889 128.981 285.729 129.64C284.881 130.2 284.561 130.736 284.689 130.888Z" fill="#263238" />
    <path d="M314.464 136.968C314.4 137.588 314.58 138.208 314.965 138.698C315.35 139.187 315.91 139.508 316.528 139.592C316.828 139.647 317.137 139.641 317.435 139.574C317.733 139.507 318.014 139.381 318.263 139.204C318.511 139.026 318.722 138.801 318.881 138.54C319.041 138.28 319.146 137.99 319.192 137.688C319.256 137.069 319.077 136.45 318.694 135.961C318.31 135.471 317.752 135.15 317.136 135.064C316.835 135.009 316.526 135.015 316.227 135.082C315.929 135.148 315.647 135.274 315.398 135.451C315.148 135.629 314.938 135.855 314.777 136.115C314.617 136.376 314.51 136.666 314.464 136.968Z" fill="#263238" />
    <path d="M311.328 134.448C311.592 134.792 313.528 133.648 316.088 133.896C318.648 134.144 320.4 135.616 320.712 135.328C320.856 135.208 320.616 134.616 319.856 133.936C318.822 133.059 317.542 132.523 316.192 132.4C314.865 132.261 313.528 132.541 312.368 133.2C311.52 133.76 311.2 134.296 311.328 134.448Z" fill="#263238" />
    <path d="M300.161 152.536C300.161 152.392 298.625 151.96 296.073 151.376C295.425 151.24 294.825 151.048 294.753 150.576C294.768 149.895 294.988 149.234 295.385 148.68L297.785 143.88C301.169 137.056 303.689 131.416 303.385 131.28C303.081 131.144 300.145 136.576 296.761 143.4C295.961 145.088 295.161 146.688 294.409 148.2C293.923 148.948 293.714 149.842 293.817 150.728C293.885 150.97 294.01 151.193 294.181 151.378C294.352 151.563 294.564 151.704 294.801 151.792C295.153 151.926 295.521 152.015 295.897 152.056C298.529 152.512 300.137 152.68 300.161 152.536Z" fill="#263238" />
    <path d="M295.409 182.672C304.137 183.669 312.969 182.22 320.921 178.488C320.921 178.488 313.601 190.648 295.201 187.08L295.409 182.672Z" fill="#AA6550" />
    <path d="M300.64 158.816C301.187 158.25 301.869 157.833 302.622 157.603C303.375 157.374 304.174 157.34 304.944 157.504C305.504 157.613 306.036 157.832 306.51 158.15C306.984 158.467 307.39 158.876 307.704 159.352C308.005 159.814 308.156 160.357 308.137 160.908C308.119 161.459 307.931 161.991 307.6 162.432C307.144 162.852 306.572 163.125 305.959 163.217C305.345 163.308 304.719 163.213 304.16 162.944C302.992 162.399 301.945 161.626 301.08 160.672C300.814 160.447 300.592 160.176 300.424 159.872C300.343 159.722 300.309 159.551 300.327 159.381C300.344 159.212 300.411 159.051 300.52 158.92" fill="#AA6550" />
    <path d="M307.529 155.048C307.113 154.984 306.833 157.76 304.257 159.504C301.681 161.248 298.753 160.648 298.697 161.032C298.641 161.2 299.305 161.64 300.553 161.832C302.178 162.016 303.816 161.619 305.177 160.712C306.487 159.844 307.406 158.497 307.737 156.96C308.001 155.768 307.721 155.048 307.529 155.048Z" fill="#263238" />
    <path d="M335.329 140.728C337.359 140.498 339.413 140.833 341.265 141.696C342.189 142.13 343.018 142.742 343.704 143.497C344.391 144.252 344.921 145.135 345.265 146.096C345.85 148.07 345.661 150.192 344.737 152.032C343.809 153.855 342.486 155.448 340.865 156.696C339.764 157.667 338.448 158.363 337.025 158.728C336.313 158.905 335.567 158.903 334.856 158.72C334.145 158.537 333.491 158.179 332.953 157.68" fill="#B78876" />
    <path d="M335.24 152.872C335.008 152.92 335.752 154.208 337.64 153.896C338.636 153.653 339.497 153.03 340.04 152.16C340.685 151.19 341.133 150.103 341.36 148.96C341.619 147.747 341.443 146.481 340.864 145.384C340.616 144.919 340.267 144.516 339.842 144.204C339.416 143.892 338.927 143.68 338.408 143.584C336.544 143.36 335.832 144.6 336.008 144.656C336.184 144.712 336.936 144.224 338.128 144.656C339.32 145.088 340.272 146.712 339.824 148.656C339.376 150.6 338.432 152.464 337.296 152.824C336.16 153.184 335.384 152.72 335.24 152.872Z" fill="#AA6550" />
    <path d="M295.137 109.424C293.739 112.602 291.631 115.417 288.975 117.654C286.319 119.891 283.187 121.49 279.817 122.328C279.425 117.744 279.153 113.104 279.905 108.56C280.657 104.016 282.497 99.544 285.809 96.352C289.121 93.16 294.025 91.44 298.473 92.624" fill="#263238" />
    <path d="M296.417 101.008C295.257 103.927 294.87 107.097 295.294 110.209C295.717 113.322 296.937 116.273 298.834 118.776C300.732 121.279 303.244 123.251 306.126 124.499C309.009 125.748 312.164 126.232 315.289 125.904C316.505 125.776 317.785 125.536 318.921 125.976C320.057 126.416 320.945 127.576 321.673 128.68C324.633 133.104 327.761 137.704 332.425 140.264C337.089 142.824 343.761 142.568 346.881 138.256C348.393 136.16 348.841 133.496 349.193 130.936C350.377 122.32 350.865 113.064 346.753 105.4C343.705 99.6959 338.345 95.4639 332.417 92.8959C326.489 90.3279 319.993 89.3039 313.537 88.8959C309.793 88.6639 305.913 88.6559 302.433 90.0799C298.953 91.5039 295.953 94.6559 295.753 98.4079" fill="#263238" />
    <path d="M348.369 133.368C348.279 133.163 348.204 132.952 348.145 132.736C348.017 132.32 347.801 131.704 347.521 130.928C346.689 128.725 345.63 126.615 344.361 124.632C342.472 121.703 340.131 119.091 337.425 116.896C334.037 114.293 330.295 112.187 326.313 110.64C322.121 108.88 318.017 107.44 314.425 105.752C311.215 104.312 308.202 102.471 305.457 100.272C303.616 98.7767 302.013 97.0097 300.705 95.0319C300.352 94.4926 300.034 93.9315 299.753 93.3519C299.638 93.1596 299.544 92.9558 299.473 92.7439C299.601 92.9288 299.719 93.1211 299.825 93.3199C300.133 93.87 300.47 94.404 300.833 94.9199C302.176 96.8478 303.793 98.5698 305.633 100.032C308.376 102.185 311.378 103.986 314.569 105.392C318.145 107.048 322.249 108.488 326.457 110.248C330.474 111.813 334.246 113.947 337.657 116.584C340.383 118.817 342.728 121.478 344.601 124.464C345.855 126.478 346.883 128.624 347.665 130.864C347.929 131.664 348.121 132.28 348.217 132.712C348.286 132.926 348.337 133.145 348.369 133.368Z" fill="#455A64" />
    <path d="M342.601 132.352C342.479 132.187 342.375 132.01 342.289 131.824C342.081 131.48 341.777 130.968 341.329 130.352C340.049 128.63 338.495 127.13 336.729 125.912C334.077 124.138 331.245 122.65 328.281 121.472C326.625 120.76 324.873 120.024 323.097 119.176C321.321 118.328 319.505 117.384 317.713 116.312C314.318 114.314 311.189 111.894 308.401 109.112C306.126 106.837 304.167 104.268 302.577 101.472C301.512 99.5857 300.654 97.5902 300.017 95.52C299.809 94.784 299.657 94.208 299.585 93.816C299.528 93.6174 299.49 93.4138 299.473 93.208C299.553 93.396 299.615 93.5917 299.657 93.792C299.761 94.184 299.937 94.744 300.169 95.472C300.855 97.5085 301.744 99.4704 302.825 101.328C304.431 104.081 306.392 106.612 308.657 108.856C311.44 111.608 314.552 114.007 317.921 116C319.697 117.064 321.497 118.008 323.265 118.864C325.033 119.72 326.769 120.464 328.425 121.168C331.405 122.366 334.244 123.89 336.889 125.712C338.664 126.965 340.21 128.516 341.457 130.296C341.79 130.782 342.089 131.29 342.353 131.816C342.448 131.988 342.531 132.167 342.601 132.352Z" fill="#455A64" />
    <path d="M279.88 129.696C279.81 129.557 279.751 129.413 279.704 129.264C279.6 128.984 279.44 128.56 279.264 128.008C278.818 126.443 278.55 124.833 278.464 123.208C278.221 117.748 279.922 112.379 283.264 108.056C284.205 106.832 285.278 105.715 286.464 104.728C287.624 103.784 288.816 102.984 289.952 102.232C292.014 100.993 293.948 99.5538 295.728 97.936C296.91 96.8306 297.871 95.5113 298.56 94.048C299.024 93 299.128 92.36 299.168 92.368C299.166 92.5253 299.142 92.6815 299.096 92.832C298.998 93.2652 298.867 93.6903 298.704 94.104C298.051 95.6068 297.108 96.966 295.928 98.104C294.162 99.7644 292.229 101.239 290.16 102.504C288.97 103.278 287.819 104.111 286.712 105C285.547 105.971 284.49 107.066 283.56 108.264C281.758 110.586 280.421 113.235 279.624 116.064C278.961 118.371 278.661 120.768 278.736 123.168C278.799 124.786 279.024 126.395 279.408 127.968C279.552 128.501 279.672 128.925 279.768 129.24C279.824 129.387 279.862 129.54 279.88 129.696Z" fill="#455A64" />
    <path d="M325.728 166.712C321.366 166.759 317.137 165.208 313.84 162.352L314.352 161.784C317.173 164.326 320.771 165.841 324.561 166.082C328.352 166.323 332.112 165.276 335.233 163.111C338.354 160.946 340.651 157.791 341.753 154.156C342.855 150.521 342.697 146.621 341.304 143.088L342.016 142.808C343.361 146.513 343.469 150.554 342.323 154.326C341.178 158.097 338.842 161.396 335.664 163.728C332.73 165.705 329.266 166.746 325.728 166.712Z" fill="#20C77F" />
    <path d="M315.856 167.144C317.893 167.144 319.544 165.493 319.544 163.456C319.544 161.419 317.893 159.768 315.856 159.768C313.819 159.768 312.168 161.419 312.168 163.456C312.168 165.493 313.819 167.144 315.856 167.144Z" fill="#20C77F" />
    <path d="M356.344 146.685C357.43 139.954 352.855 133.618 346.125 132.531C339.394 131.445 333.058 136.02 331.971 142.75C330.885 149.481 335.46 155.817 342.19 156.904C348.92 157.99 355.257 153.415 356.344 146.685Z" fill="#20C77F" />
    <path d="M342.169 143C342.082 141.958 342.103 140.91 342.233 139.872L342.377 136.216C342.377 134.792 342.441 133.168 342.377 131.376C342.377 130.48 342.313 129.544 342.265 128.576C342.217 127.608 342.113 126.592 342.017 125.544C341.921 124.496 341.737 123.432 341.601 122.344C341.497 121.8 341.393 121.24 341.289 120.68C341.185 120.12 341.073 119.544 340.921 118.976C339.856 114.001 337.642 109.343 334.457 105.376C331.151 101.507 326.918 98.5395 322.153 96.752C318.246 95.2756 314.182 94.2555 310.041 93.712C306.489 93.216 303.585 93.064 301.585 92.912C300.539 92.9331 299.493 92.8473 298.465 92.656C299.498 92.4853 300.546 92.4183 301.593 92.456C304.449 92.431 307.304 92.5672 310.145 92.864C314.384 93.2997 318.552 94.2618 322.553 95.728C327.517 97.5279 331.928 100.588 335.353 104.608C338.655 108.721 340.924 113.566 341.969 118.736C342.113 119.32 342.225 119.904 342.321 120.488C342.417 121.072 342.513 121.632 342.609 122.192C342.737 123.328 342.913 124.416 342.977 125.48C343.041 126.544 343.145 127.576 343.153 128.56C343.161 129.544 343.217 130.496 343.153 131.4C343.153 133.216 343.049 134.848 342.969 136.28C342.889 137.712 342.745 138.936 342.625 139.944C342.571 140.975 342.419 141.998 342.169 143Z" fill="#20C77F" />
    <g opacity="0.4">
      <path d="M347.773 152.58C352.103 150.772 354.148 145.796 352.34 141.466C350.533 137.136 345.557 135.091 341.227 136.899C336.897 138.707 334.852 143.683 336.66 148.013C338.468 152.343 343.443 154.387 347.773 152.58Z" fill="black" />
    </g>
    <path d="M341.706 136.8C341.826 136.721 341.955 136.657 342.09 136.608C342.468 136.449 342.862 136.331 343.266 136.256C344.778 135.997 346.333 136.263 347.674 137.008C348.609 137.519 349.39 138.27 349.938 139.184C350.555 140.238 350.868 141.443 350.842 142.664C350.822 143.728 350.537 144.771 350.012 145.697C349.488 146.624 348.741 147.405 347.838 147.969C346.936 148.534 345.907 148.865 344.844 148.932C343.782 148.998 342.72 148.799 341.754 148.352C340.531 147.754 339.537 146.774 338.922 145.56C338.35 144.476 338.098 143.253 338.194 142.032C338.303 140.976 338.663 139.962 339.242 139.072C340.031 137.751 341.287 136.775 342.762 136.336C343.16 136.226 343.573 136.177 343.986 136.192C344.129 136.196 344.271 136.218 344.41 136.256C343.869 136.257 343.33 136.333 342.81 136.48C341.408 136.965 340.229 137.939 339.49 139.224C338.895 140.134 338.559 141.189 338.517 142.275C338.475 143.361 338.728 144.438 339.25 145.392C339.837 146.526 340.774 147.44 341.922 148C343.176 148.553 344.578 148.677 345.91 148.353C347.242 148.03 348.43 147.275 349.29 146.208C350.05 145.178 350.469 143.936 350.49 142.656C350.533 141.502 350.256 140.358 349.69 139.352C349.183 138.476 348.451 137.752 347.57 137.256C346.289 136.511 344.798 136.213 343.33 136.408C342.781 136.504 342.238 136.635 341.706 136.8Z" fill="#263238" />
    <path d="M344.424 153.088C344.133 152.46 344.001 151.771 344.04 151.08C343.949 150.398 344.023 149.704 344.256 149.056C344.409 149.714 344.468 150.39 344.432 151.064C344.527 151.735 344.524 152.417 344.424 153.088Z" fill="#263238" />
    <path d="M349.113 151.44C348.408 150.353 347.934 149.133 347.721 147.856C348.425 148.943 348.899 150.163 349.113 151.44Z" fill="#263238" />
    <path d="M352.273 147.744C352.201 147.824 351.617 147.416 350.969 146.832C350.321 146.248 349.865 145.704 349.937 145.624C350.009 145.544 350.593 145.952 351.241 146.536C351.889 147.12 352.345 147.664 352.273 147.744Z" fill="#263238" />
    <path d="M352.496 142.584C352.456 142.688 352.04 142.632 351.552 142.456C351.064 142.28 350.704 142.056 350.752 141.952C350.8 141.848 351.208 141.904 351.696 142.08C352.184 142.256 352.536 142.48 352.496 142.584Z" fill="#263238" />
    <path d="M338.881 151.2C339.102 149.833 339.748 148.57 340.729 147.592C340.523 148.239 340.236 148.858 339.873 149.432C339.617 150.06 339.284 150.654 338.881 151.2Z" fill="#263238" />
    <path d="M336.345 146.856C336.265 146.776 336.753 146.176 337.425 145.52C338.097 144.864 338.705 144.384 338.785 144.464C338.865 144.544 338.377 145.144 337.705 145.8C337.033 146.456 336.425 146.936 336.345 146.856Z" fill="#263238" />
    <path d="M338.329 140.968C338.329 141.072 338.009 141.256 337.529 141.376C337.049 141.496 336.681 141.512 336.657 141.376C336.633 141.24 336.969 141.08 337.457 140.96C337.945 140.84 338.297 140.864 338.329 140.968Z" fill="#263238" />
    <path d="M402.897 208.504C402.097 203.984 400.329 201.528 399.009 200.24C397.839 198.973 396.526 197.845 395.097 196.88C393.305 195.784 390.865 194.432 389.305 194.088C387.377 193.672 386.905 191.168 388.505 190.448C390.105 189.728 395.465 190.76 400.609 194.536C405.753 198.312 403.145 188.744 402.265 185.24C401.385 181.736 399.201 170.776 400.001 169.672C401.273 168.072 403.281 169.16 404.089 172.68C404.897 176.2 408.041 186.6 409.873 186.088C411.705 185.576 406.937 167.8 406.937 167.8C406.937 167.8 405.337 164.152 407.409 163.496C411.201 162.304 414.849 181.552 415.153 183.392C415.361 184.664 417.377 184.192 417.081 182.824C416.785 181.456 411.929 165.184 415.777 163.936C418.729 162.984 418.929 179.744 421.809 182.608C424.689 185.472 420.353 169.88 423.217 169.08C424.281 168.784 425.121 168.712 426.313 177.992C426.961 182.976 426.545 189.848 428.489 199.36" fill="#B78876" />
    <path d="M393.304 244.28L410.792 269.376L402.4 204.656L427.4 194.792C427.4 194.792 458.952 315.752 416.64 317.448C416.64 317.448 387.352 316.648 365.496 265.96L393.304 244.28Z" fill="#B78876" />
    <path d="M421.353 194.32C421.401 194.384 420.809 194.776 420.033 195.64C419.019 196.776 418.314 198.153 417.985 199.64L417.889 200.112L417.545 199.76C417.143 199.351 416.709 198.974 416.249 198.632C414.688 197.493 412.857 196.781 410.937 196.568C409.457 196.408 408.537 196.568 408.537 196.48C409.319 196.194 410.158 196.095 410.985 196.192C413.633 196.314 416.129 197.461 417.945 199.392L417.497 199.512C417.849 197.929 418.656 196.483 419.817 195.352C420.24 194.891 420.766 194.537 421.353 194.32Z" fill="#AA6550" />
    <path d="M380.745 296.6L359.585 269.76L354.081 297.216C351.855 308.335 353.002 319.866 357.377 330.328L360.105 336.864H262.121L264.569 328.136C265.953 317.448 264.105 306.296 264.425 290.984L261.705 273.728L246.881 336.864H203.305C203.305 336.864 227.201 238.872 242.209 219.48C261.097 195.04 294.105 198.264 294.105 198.264L314.321 229.96L334.073 201.376C334.073 201.376 368.009 194.176 394.505 239.776L408.681 264.072L402.097 214.048L432.801 206.976C432.801 206.976 443.881 256.12 443.153 282.44C442.505 305.944 432.497 318.272 418.633 319.488C396.801 321.392 380.745 296.6 380.745 296.6Z" fill="#20C77F" />
    <path d="M294.104 198.264L294.448 194.312C294.448 194.312 309.424 197.64 314.448 223.792C314.448 223.792 319.488 199.656 335.616 197.232L338.336 204.184L328.432 229.968L311.04 235.056L294.112 229.968L286.4 214.68L294.104 198.264Z" fill="#20C77F" />
    <path d="M252.362 208.664C252.406 208.885 252.433 209.11 252.441 209.336C252.441 209.816 252.522 210.464 252.586 211.288C252.69 212.976 252.865 215.416 253.105 218.44C253.593 224.472 254.417 232.8 255.721 241.944C257.025 251.088 258.577 259.32 259.801 265.248C260.417 268.216 260.929 270.608 261.305 272.264C261.473 273.064 261.61 273.704 261.714 274.168C261.771 274.388 261.808 274.613 261.825 274.84C261.745 274.629 261.681 274.412 261.634 274.192C261.511 273.728 261.351 273.096 261.153 272.296C260.737 270.656 260.177 268.296 259.553 265.312C258.257 259.392 256.673 251.16 255.353 242C254.033 232.84 253.265 224.504 252.857 218.456C252.649 215.432 252.513 212.984 252.449 211.296C252.449 210.496 252.402 209.824 252.386 209.344C252.37 208.864 252.354 208.664 252.362 208.664Z" fill="#263238" />
    <path d="M337.968 200.448C337.909 200.58 337.837 200.706 337.752 200.824L337.08 201.864L334.584 205.672C332.488 208.872 329.664 213.392 326.72 218.472C326.608 218.672 326.488 218.864 326.384 219.056L326.192 219.384L326.032 219.04C325.521 217.769 324.793 216.597 323.88 215.576C323.462 215.119 322.942 214.767 322.362 214.55C321.782 214.333 321.159 214.257 320.544 214.328C319.434 214.569 318.453 215.213 317.792 216.136C317.182 216.926 316.716 217.817 316.416 218.768C315.856 220.528 315.528 222.008 315.104 222.968C314.955 223.339 314.782 223.7 314.584 224.048C314.44 224.283 314.36 224.395 314.344 224.384C314.344 224.384 314.616 223.88 314.968 222.912C315.32 221.944 315.616 220.512 316.16 218.688C316.446 217.694 316.913 216.761 317.536 215.936C318.234 214.93 319.29 214.229 320.488 213.976C321.159 213.889 321.841 213.964 322.477 214.195C323.114 214.426 323.685 214.806 324.144 215.304C325.101 216.349 325.862 217.558 326.392 218.872H326.04L326.376 218.288C329.32 213.2 332.192 208.688 334.376 205.536C335.456 203.936 336.352 202.664 336.976 201.792C337.28 201.392 337.52 201.056 337.712 200.792C337.785 200.669 337.871 200.553 337.968 200.448Z" fill="#263238" />
    <path d="M323.704 215.256C323.704 215.256 323.664 215.376 323.544 215.592L323.016 216.52L321.008 219.896L317.984 224.864L316.184 227.8C315.864 228.304 315.544 228.824 315.216 229.352C315.116 229.503 314.989 229.633 314.84 229.736C314.751 229.794 314.65 229.831 314.545 229.845C314.44 229.859 314.333 229.849 314.232 229.816C313.885 229.68 313.601 229.42 313.432 229.088C310.624 224.864 308.528 220.776 306.888 217.888C306.088 216.44 305.408 215.28 304.944 214.48C304.682 214.077 304.447 213.658 304.24 213.224C304.24 213.224 304.336 213.32 304.472 213.52C304.608 213.72 304.824 214.008 305.072 214.4C305.584 215.2 306.288 216.32 307.128 217.752C308.832 220.592 310.968 224.656 313.768 228.856C313.936 229.128 314.096 229.36 314.312 229.424C314.528 229.488 314.696 229.344 314.864 229.112L315.824 227.576L317.64 224.656L320.736 219.728L322.848 216.424C323.088 216.072 323.28 215.776 323.448 215.536C323.521 215.432 323.607 215.338 323.704 215.256Z" fill="#263238" />
    <path d="M377.961 217.6C377.896 217.778 377.818 217.952 377.729 218.12C377.553 218.488 377.313 218.976 377.009 219.584C376.369 220.848 375.473 222.688 374.401 224.976C373.329 227.264 372.113 230.024 370.833 233.112C369.553 236.2 368.249 239.64 366.985 243.288C365.721 246.936 364.665 250.488 363.785 253.688C362.905 256.888 362.185 259.832 361.601 262.296C361.017 264.76 360.609 266.768 360.337 268.152C360.201 268.816 360.089 269.344 360.009 269.752C359.98 269.94 359.931 270.125 359.865 270.304C359.866 270.113 359.888 269.922 359.929 269.736C359.993 269.328 360.081 268.792 360.185 268.136C360.409 266.736 360.801 264.72 361.329 262.24C361.857 259.76 362.561 256.832 363.433 253.592C364.305 250.352 365.393 246.84 366.633 243.192C367.873 239.544 369.233 236.104 370.513 233.008C371.793 229.912 373.065 227.168 374.177 224.888C375.289 222.608 376.217 220.784 376.897 219.544L377.697 218.12C377.766 217.937 377.855 217.763 377.961 217.6Z" fill="#263238" />
    <path d="M333.136 316.992C332.934 317.003 332.731 317.003 332.528 316.992L330.776 316.856C329.976 316.792 329.088 316.712 328.016 316.576C326.944 316.44 325.712 316.32 324.368 316.112C321.664 315.744 318.464 315.184 314.936 314.456C311.408 313.728 307.56 312.752 303.568 311.576C299.576 310.4 295.84 309.064 292.472 307.776C289.104 306.488 286.136 305.176 283.672 304.008C282.424 303.448 281.328 302.88 280.36 302.408C279.392 301.936 278.56 301.496 277.896 301.128L276.352 300.288C276.171 300.197 275.997 300.093 275.832 299.976C276.026 300.037 276.214 300.118 276.392 300.216L277.992 301.016C278.672 301.36 279.504 301.816 280.48 302.232C281.456 302.648 282.56 303.24 283.808 303.776C286.288 304.912 289.272 306.176 292.608 307.456C295.944 308.736 299.704 310.024 303.68 311.216C307.656 312.408 311.504 313.344 315.008 314.12C318.512 314.896 321.712 315.456 324.408 315.856C325.744 316.088 326.968 316.232 328.04 316.376C329.112 316.52 330.032 316.64 330.792 316.72L332.536 316.936C332.737 316.937 332.938 316.956 333.136 316.992Z" fill="#263238" />
    <path d="M328.801 318.704C328.669 318.755 328.532 318.79 328.393 318.808L327.225 319.032C326.209 319.216 324.729 319.448 322.897 319.704C313.353 320.99 303.706 321.325 294.097 320.704C292.249 320.576 290.761 320.448 289.737 320.328L288.553 320.192C288.415 320.178 288.279 320.154 288.145 320.12C288.283 320.101 288.423 320.101 288.561 320.12L289.745 320.184C290.777 320.256 292.265 320.344 294.113 320.432C297.793 320.608 302.913 320.728 308.513 320.536C314.113 320.344 319.217 319.864 322.913 319.432C324.745 319.216 326.225 319.024 327.249 318.888L328.433 318.736C328.553 318.709 328.677 318.698 328.801 318.704Z" fill="#263238" />
    <path d="M363.48 274.704C363.498 274.509 363.535 274.316 363.592 274.128L364 272.528L365.52 266.536C366.808 261.48 368.512 254.48 370.616 246.8C371.672 242.96 372.752 239.32 373.816 236.032C374.88 232.744 375.904 229.816 376.848 227.384C377.296 226.152 377.76 225.064 378.144 224.104C378.528 223.144 378.888 222.328 379.192 221.664L379.888 220.136C379.964 219.952 380.055 219.776 380.16 219.608C380.109 219.8 380.042 219.987 379.96 220.168C379.808 220.552 379.6 221.072 379.336 221.72C379.072 222.368 378.72 223.224 378.352 224.192C377.984 225.16 377.552 226.248 377.112 227.48C376.2 229.92 375.208 232.864 374.168 236.144C373.128 239.424 372.064 243.072 371.008 246.904C368.912 254.576 367.168 261.568 365.808 266.608C365.136 269.128 364.576 271.168 364.168 272.568L363.688 274.168C363.639 274.354 363.569 274.533 363.48 274.704Z" fill="#263238" />
    <path d="M261.192 273.392C261.043 273.241 260.904 273.081 260.776 272.912C260.52 272.576 260.112 272.112 259.664 271.464C258.346 269.646 257.177 267.726 256.168 265.72C254.668 262.743 253.439 259.637 252.496 256.44C251.352 252.527 250.502 248.535 249.952 244.496C248.784 235.904 248.592 228.048 248.24 222.4C248.08 219.568 247.928 217.28 247.816 215.696C247.76 214.936 247.712 214.328 247.68 213.88C247.664 213.667 247.664 213.453 247.68 213.24C247.733 213.447 247.768 213.659 247.784 213.872C247.832 214.28 247.912 214.896 247.992 215.688C248.16 217.288 248.352 219.552 248.544 222.376C248.968 228.032 249.2 235.88 250.368 244.44C250.913 248.461 251.75 252.437 252.872 256.336C253.782 259.521 254.968 262.621 256.416 265.6C257.4 267.605 258.525 269.538 259.784 271.384C260.216 272.048 260.584 272.52 260.84 272.872C260.974 273.034 261.091 273.208 261.192 273.392Z" fill="#263238" />
    <path d="M257.473 255.776C257.473 255.896 256.337 256.144 255.073 256.88C253.809 257.616 253.049 258.48 252.961 258.4C253.44 257.633 254.098 256.994 254.878 256.537C255.659 256.08 256.538 255.819 257.441 255.776H257.473Z" fill="#263238" />
    <path d="M256.728 245.504C255.705 245.785 254.705 246.144 253.736 246.576C252.833 247.131 251.972 247.751 251.16 248.432C251.753 247.494 252.583 246.73 253.567 246.216C254.55 245.701 255.652 245.456 256.76 245.504H256.728Z" fill="#263238" />
    <path d="M254.48 236.112C253.665 236.33 252.863 236.597 252.08 236.912C251.363 237.338 250.671 237.805 250.008 238.312C250.453 237.553 251.111 236.94 251.899 236.549C252.688 236.158 253.574 236.006 254.448 236.112H254.48Z" fill="#263238" />
    <path d="M253.384 226.4C253.384 226.512 252.384 226.712 251.232 227.2C250.08 227.688 249.232 228.288 249.16 228.2C249.646 227.563 250.312 227.086 251.072 226.832C251.783 226.463 252.588 226.312 253.384 226.4Z" fill="#263238" />
    <path d="M252.752 218.576C252.752 218.688 251.744 218.88 250.592 219.424C249.44 219.968 248.64 220.632 248.568 220.544C249.013 219.865 249.664 219.346 250.424 219.064C251.129 218.66 251.944 218.489 252.752 218.576Z" fill="#263238" />
    <path d="M365.537 262.72C365.441 262.792 364.921 262.088 363.937 261.712C363.338 261.536 362.726 261.41 362.105 261.336C362.411 261.177 362.75 261.095 363.093 261.095C363.437 261.095 363.776 261.177 364.081 261.336C365.201 261.784 365.641 262.688 365.537 262.72Z" fill="#263238" />
    <path d="M368.513 254.712C368.102 253.928 367.496 253.264 366.753 252.784C366.011 252.303 365.156 252.022 364.273 251.968C364.273 251.92 364.569 251.816 365.073 251.832C365.746 251.87 366.396 252.082 366.961 252.448C367.529 252.812 367.99 253.32 368.297 253.92C368.529 254.4 368.561 254.696 368.513 254.712Z" fill="#263238" />
    <path d="M370.745 245.904C370.188 245.284 369.495 244.802 368.721 244.496C367.946 244.189 367.111 244.066 366.281 244.136C366.281 244.096 366.537 243.952 367.017 243.888C367.646 243.81 368.285 243.892 368.873 244.128C369.461 244.362 369.98 244.738 370.385 245.224C370.689 245.6 370.785 245.888 370.745 245.904Z" fill="#263238" />
    <path d="M373.377 237.448C373.273 237.504 372.857 236.712 371.929 236.24C371.347 236.003 370.741 235.832 370.121 235.728C370.121 235.68 370.329 235.584 370.705 235.56C371.196 235.551 371.68 235.667 372.114 235.897C372.548 236.126 372.916 236.462 373.185 236.872C373.377 237.192 373.417 237.424 373.377 237.448Z" fill="#263238" />
    <path d="M376.448 229.68C376.01 229.121 375.466 228.654 374.848 228.304C374.175 228.055 373.461 227.936 372.744 227.952C372.744 227.912 372.952 227.76 373.376 227.688C373.934 227.62 374.5 227.709 375.01 227.945C375.52 228.181 375.954 228.555 376.264 229.024C376.456 229.392 376.488 229.664 376.448 229.68Z" fill="#263238" />
    <path d="M326.16 218.576C326.117 218.705 326.058 218.829 325.984 218.944L325.424 219.968C324.928 220.848 324.192 222.12 323.264 223.68C322.336 225.24 321.216 227.08 319.936 229.104C319.288 230.112 318.608 231.168 317.872 232.248C317.136 233.379 316.335 234.466 315.472 235.504C315.245 235.789 314.975 236.037 314.672 236.24C314.566 236.302 314.442 236.328 314.32 236.312C314.215 236.294 314.113 236.262 314.016 236.216C313.856 236.125 313.703 236.021 313.56 235.904C313.051 235.458 312.583 234.968 312.16 234.44C311.36 233.432 310.56 232.408 309.896 231.432C308.52 229.464 307.352 227.648 306.384 226.112C305.416 224.576 304.664 223.328 304.152 222.448L303.576 221.432C303.499 221.319 303.439 221.195 303.4 221.064C303.49 221.166 303.57 221.276 303.64 221.392L304.28 222.368C304.864 223.264 305.656 224.48 306.616 225.968C307.576 227.456 308.808 229.272 310.192 231.216C310.888 232.192 311.632 233.2 312.456 234.192C312.868 234.698 313.32 235.168 313.808 235.6C314.048 235.792 314.352 236 314.504 235.88C314.765 235.7 314.999 235.485 315.2 235.24C316.058 234.218 316.859 233.149 317.6 232.04C318.336 230.968 319.024 229.92 319.672 228.912C320.968 226.904 322.112 225.08 323.072 223.536C324.032 221.992 324.776 220.808 325.336 219.896L325.968 218.912C326.064 218.68 326.144 218.568 326.16 218.576Z" fill="#263238" />
    <path d="M309.113 229.96C309.065 229.96 308.977 229.688 309.009 229.224C309.07 228.621 309.303 228.049 309.681 227.576C310.052 227.095 310.555 226.734 311.129 226.536C311.569 226.4 311.857 226.424 311.865 226.472C311.156 226.792 310.519 227.252 309.993 227.824C309.554 228.467 309.254 229.195 309.113 229.96Z" fill="#263238" />
    <path d="M314.4 236.264C313.904 234.194 313.888 232.038 314.352 229.96C314.452 231.008 314.47 232.061 314.408 233.112C314.485 234.161 314.482 235.215 314.4 236.264Z" fill="#263238" />
    <path d="M320.336 228.232C320.224 228.232 319.976 227.376 319.144 226.696C318.61 226.327 318.032 226.026 317.424 225.8C317.424 225.752 317.664 225.696 318.048 225.76C318.546 225.85 319.012 226.068 319.4 226.392C319.79 226.714 320.088 227.133 320.264 227.608C320.392 228 320.384 228.216 320.336 228.232Z" fill="#263238" />
    <path d="M324.232 221.712C323.974 221.121 323.644 220.565 323.248 220.056C322.761 219.628 322.223 219.26 321.648 218.96C321.648 218.912 321.896 218.888 322.264 218.96C322.745 219.114 323.178 219.389 323.52 219.76C323.866 220.125 324.109 220.575 324.224 221.064C324.32 221.464 324.28 221.704 324.232 221.712Z" fill="#263238" />
    <path d="M305.136 224C305.088 224 304.96 223.704 304.944 223.2C304.931 222.497 305.099 221.803 305.432 221.184C305.763 220.563 306.245 220.035 306.832 219.648C307.288 219.368 307.632 219.304 307.632 219.344C306.853 219.85 306.215 220.546 305.777 221.366C305.339 222.185 305.116 223.103 305.128 224.032L305.136 224Z" fill="#263238" />
    <g opacity="0.4">
      <path d="M293.897 198.2C295.609 204.776 298.473 215.488 301.569 223.864C301.684 224.259 301.886 224.622 302.161 224.928C302.961 225.672 304.297 225.216 305.041 224.424C305.671 223.609 306.236 222.745 306.729 221.84C306.981 221.39 307.334 221.006 307.76 220.715C308.187 220.425 308.674 220.238 309.185 220.168C309.605 220.178 310.018 220.281 310.394 220.469C310.77 220.657 311.1 220.926 311.361 221.256C311.877 221.921 312.325 222.637 312.697 223.392C312.782 223.601 312.91 223.789 313.072 223.945C313.235 224.101 313.429 224.22 313.641 224.296C313.747 224.328 313.861 224.329 313.968 224.297C314.074 224.265 314.169 224.203 314.241 224.118C314.313 224.033 314.358 223.928 314.37 223.818C314.383 223.707 314.363 223.595 314.313 223.496L311.577 216.392C311.577 216.392 310.321 211.184 305.977 211.992C301.113 212.896 303.321 220.896 303.321 220.896C303.321 220.896 293.825 197.92 293.897 198.2Z" fill="black" />
    </g>
    <path d="M314.449 223.792C314.351 223.649 314.273 223.492 314.217 223.328C314.073 223.016 313.873 222.528 313.625 221.96C313.137 220.712 312.449 218.984 311.609 216.864C311.393 216.328 311.161 215.768 310.913 215.192C310.68 214.602 310.341 214.06 309.913 213.592C309.423 213.094 308.829 212.709 308.174 212.465C307.519 212.22 306.819 212.122 306.121 212.176C305.38 212.268 304.684 212.58 304.121 213.072C303.602 213.667 303.232 214.377 303.041 215.144C302.82 215.924 302.763 216.741 302.873 217.544C302.972 218.401 303.124 219.25 303.329 220.088C303.401 220.4 303.481 220.712 303.553 221L303.169 221.112C302.049 217.912 300.769 214.904 299.585 212.208C298.401 209.512 297.321 207.08 296.473 205.008C295.625 202.936 295.001 201.264 294.625 200.08C294.425 199.496 294.305 199.032 294.217 198.712C294.161 198.557 294.123 198.396 294.105 198.232C294.179 198.379 294.241 198.531 294.289 198.688C294.401 199 294.545 199.488 294.769 200.032C295.185 201.192 295.849 202.864 296.729 204.896C297.609 206.928 298.705 209.344 299.929 212.04C301.153 214.736 302.433 217.728 303.561 220.968L303.185 221.088C303.113 220.792 303.033 220.48 302.953 220.168C302.747 219.312 302.594 218.443 302.497 217.568C302.377 216.7 302.442 215.816 302.689 214.976C302.902 214.151 303.308 213.389 303.873 212.752C304.497 212.205 305.273 211.861 306.097 211.768C306.849 211.708 307.604 211.817 308.308 212.085C309.013 212.354 309.648 212.775 310.169 213.32C310.615 213.827 310.968 214.409 311.209 215.04C311.457 215.624 311.673 216.192 311.889 216.728C312.689 218.864 313.321 220.608 313.785 221.872C314.001 222.448 314.169 222.912 314.305 223.264C314.37 223.435 314.418 223.612 314.449 223.792Z" fill="#263238" />
    <g opacity="0.4">
      <path d="M314.832 223.6C314.672 223.712 314.792 224.008 314.984 224.048C315.085 224.058 315.186 224.046 315.281 224.013C315.377 223.979 315.464 223.926 315.536 223.856C316.462 222.966 317.24 221.935 317.84 220.8C318.56 219.728 319.608 218.704 320.896 218.704C322.184 218.704 323.368 219.84 324.04 221.032C324.712 222.224 325.176 223.568 326.152 224.528C331.06 217.333 334.965 209.504 337.76 201.256C336.16 202.368 335.096 204.104 334.096 205.776C331.499 210.112 328.902 214.445 326.304 218.776C325.818 217.482 325.069 216.302 324.104 215.312C323.62 214.819 323.024 214.451 322.366 214.239C321.708 214.027 321.009 213.978 320.328 214.096C318.816 214.456 317.76 215.824 317.024 217.2C315.933 219.209 315.225 221.404 314.936 223.672" fill="black" />
    </g>
    <path d="M417 287.688C416.796 287.417 416.622 287.124 416.48 286.816C416.168 286.24 415.736 285.392 415.232 284.344C413.921 281.591 412.749 278.774 411.72 275.904C410.693 273.036 409.812 270.117 409.08 267.16C408.8 266.024 408.6 265.104 408.472 264.456C408.392 264.128 408.341 263.793 408.32 263.456C408.455 263.767 408.557 264.092 408.624 264.424C408.816 265.128 409.064 266.024 409.352 267.088C409.976 269.336 410.896 272.424 412.096 275.776C413.296 279.128 414.544 282.096 415.488 284.224C415.944 285.232 416.288 286.08 416.616 286.744C416.777 287.044 416.905 287.361 417 287.688Z" fill="#263238" />
    <path d="M409.392 286.184C409.257 285.905 409.149 285.613 409.072 285.312C408.888 284.736 408.656 283.904 408.4 282.864C407.092 277.421 406.649 271.805 407.088 266.224C407.176 265.16 407.272 264.296 407.368 263.704C407.389 263.393 407.451 263.086 407.552 262.792C407.586 263.1 407.586 263.411 407.552 263.72C407.504 264.312 407.456 265.176 407.4 266.24C407.123 271.793 407.561 277.359 408.704 282.8C408.928 283.848 409.112 284.688 409.256 285.272C409.341 285.569 409.387 285.875 409.392 286.184Z" fill="#263238" />
    <path d="M433.841 216.152C434.052 216.206 434.256 216.284 434.449 216.384L434.569 216.44L434.449 216.488C429.468 218.157 424.371 219.462 419.201 220.392C414.737 221.192 410.649 221.688 407.689 221.928C406.209 222.048 405.009 222.12 404.177 222.144C403.746 222.182 403.312 222.182 402.881 222.144C403.303 222.061 403.731 222.007 404.161 221.984L407.665 221.64C410.609 221.328 414.681 220.84 419.129 219.992C426.553 218.64 432.657 216.84 434.441 216.376V216.472C434.229 216.39 434.027 216.282 433.841 216.152Z" fill="#263238" />
    <path d="M426.953 212.68C426.953 212.68 427.025 212.552 427.273 212.48C427.452 212.443 427.636 212.444 427.814 212.484C427.992 212.524 428.16 212.602 428.305 212.712C428.538 212.863 428.724 213.077 428.84 213.329C428.956 213.581 428.998 213.861 428.961 214.136C428.929 214.304 428.86 214.463 428.759 214.601C428.658 214.74 428.528 214.854 428.377 214.936C428.067 215.112 427.707 215.18 427.353 215.128C427.001 215.082 426.671 214.928 426.409 214.688C426.288 214.568 426.192 214.425 426.127 214.266C426.063 214.108 426.031 213.939 426.033 213.768C426.052 213.494 426.14 213.23 426.29 213C426.44 212.77 426.646 212.583 426.889 212.456C427.201 212.276 427.568 212.216 427.921 212.288C428.169 212.352 428.265 212.464 428.257 212.48C427.837 212.391 427.398 212.469 427.033 212.696C426.849 212.81 426.695 212.967 426.585 213.154C426.475 213.341 426.412 213.551 426.401 213.768C426.419 214.024 426.531 214.263 426.716 214.441C426.901 214.618 427.145 214.721 427.401 214.728C427.649 214.789 427.911 214.753 428.134 214.628C428.357 214.504 428.524 214.299 428.601 214.056C428.616 213.876 428.593 213.695 428.534 213.524C428.476 213.354 428.383 213.197 428.262 213.063C428.14 212.93 427.993 212.823 427.828 212.749C427.664 212.674 427.486 212.635 427.305 212.632C427.081 212.648 426.969 212.72 426.953 212.68Z" fill="#263238" />
    <path d="M308.073 229.6C307.935 229.737 307.788 229.866 307.633 229.984C307.329 230.208 306.913 230.592 306.313 230.992C304.648 232.181 302.865 233.197 300.993 234.024C298.211 235.255 295.271 236.09 292.257 236.504C290.478 236.744 288.683 236.84 286.889 236.792C284.962 236.724 283.046 236.486 281.161 236.08C277.289 235.208 273.801 233.784 270.513 232.88C268.971 232.438 267.395 232.127 265.801 231.952C264.403 231.813 262.995 231.829 261.601 232C259.585 232.207 257.646 232.889 255.945 233.992C255.343 234.429 254.764 234.896 254.209 235.392C254.682 234.806 255.237 234.291 255.857 233.864C257.557 232.692 259.518 231.956 261.569 231.72C262.975 231.536 264.397 231.507 265.809 231.632C267.432 231.792 269.039 232.094 270.609 232.536C273.929 233.4 277.417 234.816 281.241 235.68C283.105 236.078 285 236.316 286.905 236.392C288.677 236.44 290.45 236.351 292.209 236.128C295.196 235.731 298.115 234.924 300.881 233.728C302.752 232.937 304.541 231.967 306.225 230.832C306.841 230.456 307.265 230.096 307.585 229.888C307.736 229.774 307.9 229.677 308.073 229.6Z" fill="#E2EFFF" />
    <path d="M358.904 262.512C358.82 262.484 358.74 262.446 358.664 262.4L357.968 262.04C357.664 261.888 357.272 261.728 356.816 261.52C356.36 261.312 355.816 261.128 355.216 260.968C351.656 260.046 347.938 259.912 344.32 260.576C341.817 260.985 339.34 261.546 336.904 262.256C334.264 262.976 331.448 263.816 328.424 264.432C325.25 265.129 321.988 265.329 318.752 265.024C315.299 264.608 311.905 263.802 308.632 262.624C305.248 261.488 302.016 260.224 298.84 259.16C295.81 258.094 292.683 257.325 289.504 256.864C284.099 256.15 278.608 256.448 273.312 257.744C271.283 258.256 269.29 258.9 267.344 259.672C266.504 260.04 265.704 260.368 264.992 260.712C264.28 261.056 263.632 261.368 263.064 261.688L261.552 262.528L260.472 263.2L259.808 263.6C259.736 263.656 259.655 263.699 259.568 263.728L259.784 263.568L260.432 263.128C260.712 262.944 261.064 262.696 261.488 262.432L262.984 261.552C263.552 261.224 264.208 260.912 264.912 260.544C265.616 260.176 266.416 259.848 267.264 259.464C269.21 258.668 271.206 258.003 273.24 257.472C278.568 256.127 284.103 255.798 289.552 256.504C292.758 256.957 295.912 257.724 298.968 258.792C302.168 259.848 305.368 261.112 308.752 262.248C311.999 263.419 315.367 264.224 318.792 264.648C321.989 264.962 325.215 264.773 328.352 264.088C331.36 263.488 334.168 262.664 336.816 261.952C339.268 261.253 341.761 260.705 344.28 260.312C347.912 259.663 351.642 259.83 355.2 260.8C355.832 260.976 356.368 261.216 356.84 261.392C357.312 261.568 357.68 261.776 357.984 261.944L358.656 262.344C358.832 262.456 358.912 262.504 358.904 262.512Z" fill="#E2EFFF" />
    <path d="M318.592 229C319.265 229.189 319.949 229.339 320.64 229.448C322.531 229.661 324.446 229.509 326.28 229C328.986 228.171 331.639 227.177 334.224 226.024C335.789 225.388 337.413 224.906 339.072 224.584C340.858 224.265 342.676 224.16 344.488 224.272C347.982 224.499 351.414 225.311 354.64 226.672C357.262 227.779 359.793 229.093 362.208 230.6C364.28 231.864 365.904 233 367.008 233.728C367.544 234.096 367.968 234.392 368.288 234.624C368.441 234.72 368.586 234.83 368.72 234.952C368.553 234.881 368.395 234.793 368.248 234.688L366.928 233.888C365.776 233.168 364.136 232.104 362.048 230.872C359.624 229.413 357.097 228.132 354.488 227.04C351.294 225.698 347.903 224.887 344.448 224.64C342.666 224.535 340.879 224.635 339.12 224.936C337.479 225.253 335.872 225.724 334.32 226.344C331.344 227.496 328.72 228.744 326.32 229.248C324.453 229.745 322.504 229.856 320.592 229.576C319.9 229.483 319.226 229.289 318.592 229Z" fill="#E2EFFF" />
    <path d="M365.353 208.936C364.984 209.08 364.604 209.195 364.217 209.28C363.841 209.384 363.417 209.496 362.857 209.6C362.297 209.704 361.721 209.848 361.041 209.944C359.453 210.211 357.85 210.384 356.241 210.464C354.295 210.562 352.345 210.541 350.401 210.4C348.443 210.223 346.498 209.924 344.577 209.504C343.009 209.155 341.463 208.717 339.945 208.192C339.297 207.984 338.729 207.736 338.217 207.544C337.705 207.352 337.281 207.16 336.937 207C336.568 206.852 336.212 206.673 335.873 206.464C336.257 206.563 336.631 206.694 336.993 206.856C337.353 207 337.793 207.168 338.297 207.336C338.801 207.504 339.385 207.736 340.033 207.928C341.329 208.344 342.897 208.768 344.649 209.152C348.467 209.964 352.372 210.294 356.273 210.136C358.065 210.056 359.681 209.904 361.025 209.712C361.705 209.632 362.305 209.512 362.841 209.424C363.377 209.336 363.833 209.248 364.201 209.168C364.576 209.052 364.962 208.975 365.353 208.936Z" fill="#E2EFFF" />
    <path d="M252.689 214.072C252.795 213.96 252.91 213.859 253.033 213.768C253.273 213.576 253.625 213.288 254.089 212.968C255.009 212.264 256.353 211.272 258.089 210.12C262.546 207.045 267.427 204.636 272.577 202.968C277.761 201.319 283.263 200.935 288.625 201.848C290.239 202.144 291.82 202.597 293.345 203.2C293.889 203.4 294.289 203.616 294.569 203.736C294.713 203.793 294.85 203.866 294.977 203.952C294.977 203.952 294.377 203.736 293.297 203.344C291.764 202.796 290.184 202.389 288.577 202.128C283.258 201.306 277.821 201.722 272.689 203.344C267.593 205.014 262.748 207.372 258.289 210.352C256.553 211.472 255.177 212.432 254.233 213.096L253.137 213.896C252.997 213.975 252.846 214.035 252.689 214.072Z" fill="#E2EFFF" />
    <path d="M353.376 297.968C353.305 298.001 353.23 298.023 353.152 298.032L352.48 298.176C352.117 298.258 351.748 298.314 351.376 298.344L350.672 298.424H349.872C347.576 298.52 344.272 297.928 340.376 296.68C338.424 296.072 336.312 295.32 334.016 294.64C331.576 293.915 329.071 293.43 326.536 293.192C321.168 292.68 315.232 293.328 309.12 294.44C303.008 295.552 297.2 296.936 291.824 297.576C287.065 298.244 282.239 298.274 277.472 297.664C274.258 297.243 271.134 296.3 268.224 294.872L266.88 294.168L265.92 293.6L265.344 293.224L265.16 293.088C265.235 293.111 265.305 293.146 265.368 293.192L265.96 293.528L266.92 294.096L268.272 294.768C271.189 296.129 274.302 297.025 277.496 297.424C282.238 297.984 287.033 297.925 291.76 297.248C297.112 296.584 302.888 295.192 309.032 294.048C315.176 292.904 321.136 292.288 326.552 292.832C329.107 293.08 331.632 293.581 334.088 294.328C336.392 295.024 338.504 295.784 340.44 296.408C343.46 297.527 346.638 298.156 349.856 298.272H350.656L351.36 298.208C351.731 298.193 352.1 298.151 352.464 298.08L353.136 297.976L353.376 297.968Z" fill="#E2EFFF" />
    <g opacity="0.3">
      <path d="M282.897 303.48C286.521 312.528 293.537 318.952 303.193 320.28C312.849 321.608 322.617 319.4 331.993 316.84C314.897 314.44 299.769 312.08 282.873 303.48" fill="black" />
    </g>
    <path d="M355.825 328.36L355.593 328.272L354.913 327.984L352.329 326.832C350.073 325.848 346.849 324.328 342.825 322.584C340.636 321.627 338.369 320.859 336.049 320.288C333.387 319.652 330.63 319.525 327.921 319.912C326.458 320.128 325.013 320.457 323.601 320.896C322.132 321.356 320.688 321.89 319.273 322.496C316.385 323.76 313.513 325.328 310.553 326.912C307.689 328.501 304.716 329.886 301.657 331.056C298.795 332.156 295.769 332.77 292.705 332.872C289.922 332.905 287.163 332.36 284.601 331.272C282.399 330.324 280.261 329.234 278.201 328.008C276.289 326.912 274.569 325.92 273.009 325.16C271.678 324.49 270.294 323.928 268.873 323.48C268.348 323.308 267.814 323.166 267.273 323.056C266.889 322.955 266.499 322.88 266.105 322.832L265.377 322.712C265.293 322.707 265.209 322.69 265.129 322.664C265.211 322.651 265.295 322.651 265.377 322.664L266.113 322.744C266.512 322.779 266.907 322.844 267.297 322.936C267.837 323.032 268.372 323.16 268.897 323.32C270.333 323.739 271.732 324.274 273.081 324.92C274.681 325.664 276.401 326.648 278.313 327.72C280.374 328.925 282.512 329.993 284.713 330.92C287.247 331.973 289.97 332.493 292.713 332.448C295.727 332.329 298.7 331.713 301.513 330.624C304.539 329.455 307.479 328.075 310.313 326.496C313.265 324.896 316.145 323.344 319.057 322.08C320.486 321.454 321.946 320.904 323.433 320.432C324.868 319.998 326.333 319.672 327.817 319.456C330.568 319.072 333.367 319.214 336.065 319.872C338.403 320.469 340.684 321.272 342.881 322.272C346.881 324.056 350.081 325.608 352.337 326.64L354.889 327.856L355.553 328.184C355.753 328.312 355.833 328.352 355.825 328.36Z" fill="#E2EFFF" />
  </svg>