<svg viewBox="0 0 237 218" fill="none" xmlns="http://www.w3.org/2000/svg">
  <path d="M49.8073 145.072C51.4974 143.946 53.5329 143.456 55.5508 143.691C56.241 143.779 56.9244 143.913 57.5967 144.092C57.5967 144.092 69.8831 132.36 76.8769 127.377C79.5668 125.458 82.1468 124.591 84.6814 124.58C88.0078 121.768 93.0959 116.217 96.1344 112.807V112.398C94.6909 105.677 91.7131 99.2176 88.6292 93.0984C86.9963 89.8439 80.8133 80.1183 88.1404 80.1448C90.872 80.1448 94.7061 84.0275 96.9489 87.5469C94.3992 81.2195 92.6337 75.4712 89.9893 69.1022C88.7239 66.0559 84.3783 53.3104 92.3647 53.5034H93.5013C93.2134 51.7475 93.6415 50.1732 95.8578 49.2763C100.249 47.5015 102.208 51.8837 103.935 54.2603L103.958 54.2867C104.382 48.5535 111.69 51.1306 113.763 57.651L113.793 57.791C114.494 57.5147 115.411 57.5526 116.574 58.1013C116.377 57.2044 115.058 54.7938 114.725 53.3104C113.967 49.984 114.6 45.7986 118.688 46.9339C126.265 49.0417 129.819 64.2584 131.304 70.3965C130.054 61.9575 129.41 59.4864 127.644 54.1429C126.629 51.0663 122.859 45.8402 124.496 42.5327C126.39 38.6993 131.869 41.3975 133.778 43.5734C140.219 50.8468 140.654 62.1164 142.302 71.142C142.25 65.4899 141.787 59.849 140.916 54.264C140.059 48.6936 137.983 41.8251 140.59 39.3918C145.208 35.0815 148.743 41.8932 149.743 45.7191C152.751 57.2271 152.66 71.0322 151.399 83.0965C152.759 80.9281 154.191 78.8279 155.714 76.8373C158.298 73.4617 162.981 65.106 168.595 66.9755C173.998 68.773 168.595 77.2536 167.133 80.6708C164.594 86.5819 162.609 92.6897 160.067 98.5667C158.821 101.458 155.316 107.131 154.418 111.267C154.418 111.267 163.382 123.263 167.856 128.675L168.023 128.72C168.269 128.236 168.485 127.766 168.66 127.324C175.479 132.89 180.306 138.809 186.258 144.576C187.22 145.511 187.978 146.169 188.531 146.775C188.792 146.453 189.05 146.128 189.289 145.802C200.276 131.679 205.136 114.211 205.845 96.9054C206.164 87.7191 205.517 78.5248 203.916 69.4731C202.541 61.4353 200.268 53.5223 196.502 46.1694C192.614 38.5872 186.905 32.0861 179.885 27.248C172.785 22.3284 164.371 19.1345 155.896 16.9926C138.116 12.4968 117.942 10.8658 100.203 16.3719C83.4198 21.5791 70.3453 33.2839 60.5745 46.8203C41.9005 72.6822 32.9404 108.251 46.1778 137.999C47.255 140.422 48.4667 142.784 49.8073 145.072Z" fill="#20C77F"/>
  <path d="M151.271 168.034C146.978 163.27 141.989 157.313 138.431 151.86C138.878 151.724 139.322 151.58 139.761 151.432C137.617 148.924 125.83 134.948 125.247 130.763C124.535 131.52 123.807 132.227 123.125 132.958C117.026 139.474 112.65 145.207 107.077 152.193L106.543 152.507C106.137 157.328 102.728 160.579 99.2496 164.617C95.8675 168.426 92.2834 172.052 88.5127 175.478C97.8743 177.135 107.456 177.052 116.927 176.235C126.399 175.417 135.965 174.252 145.243 172.208C147.952 171.61 150.653 170.918 153.321 170.112C152.506 169.347 151.801 168.621 151.271 168.034Z" fill="#20C77F"/>
  <path d="M2.00098 175.549C3.13756 170.535 8.91897 164.771 13.0561 161.653C14.7383 160.382 17.538 158.153 19.7582 159.155C22.4329 160.359 22.2435 165.479 24.3045 167.375C24.9183 161.562 29.7639 153.472 34.0412 149.589C36.8713 147.023 40.3227 147.617 43.2778 149.945C47.3506 147.462 50.1466 143.046 55.534 143.693C60.1182 144.245 64.8047 147.148 68.2107 150.179C73.2609 154.671 77.4927 158.72 80.3986 164.892C82.4748 169.305 82.9445 174.047 83.994 178.978C85.4034 185.589 82.6187 189.483 75.5568 189.434C75.5075 191.916 73.545 195.341 72.147 197.381C69.942 200.586 67.5287 200.37 64.8502 202.323C62.9786 203.689 61.967 206.05 60.5842 207.833C58.4361 210.599 56.0151 213.029 54.2193 215.999" stroke="#E2EFFF" stroke-width="3" stroke-linecap="round" stroke-linejoin="round"/>
  <path d="M70.5752 184.607C70.9206 183.923 71.4044 183.319 71.9959 182.832" stroke="#E2EFFF" stroke-width="3" stroke-linecap="round" stroke-linejoin="round"/>
  <path d="M57.5947 144.092C57.5947 144.092 69.8812 132.361 76.8749 127.377C83.5012 122.65 89.4493 124.297 95.7687 129.428C101.876 134.389 105.312 141.95 106.441 149.67C107.392 156.157 103.372 159.839 99.2429 164.622C96.0832 168.289 87.3618 177.11 84.0051 179.002" stroke="#E2EFFF" stroke-width="3" stroke-linecap="round" stroke-linejoin="round"/>
  <path d="M17.4087 89.5762C20.4396 96.8912 20.6517 100.066 14.8135 104.566C20.4964 99.245 24.895 101.133 28.8995 106.605C25.5087 102.151 25.0654 101.039 25.6148 97.9016C25.9141 96.2062 28.6722 93.2848 30.2823 92.1495C27.1492 94.3027 21.1973 97.2696 17.4087 89.5762Z" stroke="#E2EFFF" stroke-width="3" stroke-linecap="round" stroke-linejoin="round"/>
  <path d="M84.6807 124.58C89.6854 120.353 98.6796 109.912 98.6796 109.912" stroke="#E2EFFF" stroke-width="3" stroke-linecap="round" stroke-linejoin="round"/>
  <path d="M107.077 152.194C112.65 145.209 117.026 139.475 123.126 132.959C125.289 130.647 127.899 128.346 129.187 125.651C130.62 122.624 130.779 116.83 130.779 113.466C130.779 100.297 129.559 85.8105 124.925 73.3526C123.611 69.8256 120.284 59.82 116.59 58.083C112.987 56.3876 111.722 59.5399 112.139 62.0603C113.275 68.8947 114.961 75.854 115.677 81.8748" stroke="#E2EFFF" stroke-width="3" stroke-linecap="round" stroke-linejoin="round"/>
  <path d="M54.5678 47.119L45.335 46.0557" stroke="#E2EFFF" stroke-width="3" stroke-linecap="round" stroke-linejoin="round"/>
  <path d="M64.243 26.5438L58.8291 22.9941" stroke="#E2EFFF" stroke-width="3" stroke-linecap="round" stroke-linejoin="round"/>
  <path d="M113.765 57.6472C111.367 50.0787 101.929 47.8081 104.316 57.6472C105.184 61.2158 105.43 66.2565 106.32 69.897C107.142 73.2499 108.215 79.3804 108.215 79.3804" stroke="#E2EFFF" stroke-width="3" stroke-linecap="round" stroke-linejoin="round"/>
  <path d="M118.144 129.783C119.212 129.912 121.087 128.72 121.087 128.72" stroke="#E2EFFF" stroke-width="3" stroke-linecap="round" stroke-linejoin="round"/>
  <path d="M103.937 54.2568C102.21 51.8803 100.251 47.498 95.8598 49.2729C91.825 50.9039 93.7117 54.779 95.0756 57.9124C97.7049 63.9673 101.387 78.4762 101.387 78.4762" stroke="#E2EFFF" stroke-width="3" stroke-linecap="round" stroke-linejoin="round"/>
  <path d="M136.972 128.72C137.9 127.778 139.086 127.362 140.169 127.657" stroke="#E2EFFF" stroke-width="3" stroke-linecap="round" stroke-linejoin="round"/>
  <path d="M92.3594 53.5002C84.3731 53.3072 88.7186 66.0527 89.984 69.0991C92.636 75.468 94.3939 81.2088 96.9437 87.5437C97.6673 89.3374 99.3077 93.6364 99.3077 93.6364" stroke="#E2EFFF" stroke-width="3" stroke-linecap="round" stroke-linejoin="round"/>
  <path d="M148.669 87.6818C150.764 83.9059 153.119 80.2795 155.716 76.8285C158.3 73.4529 162.982 65.0972 168.597 66.9666C174 68.7641 168.597 77.2447 167.135 80.6619C164.596 86.573 162.611 92.6808 160.069 98.5578C158.47 102.259 153.17 110.531 154.386 114.285" stroke="#E2EFFF" stroke-width="3" stroke-linecap="round" stroke-linejoin="round"/>
  <path d="M96.1255 112.398C94.682 105.677 91.7042 99.2174 88.6202 93.0982C86.9874 89.8437 80.8043 80.1181 88.1315 80.1446C90.8631 80.1446 94.6972 84.0273 96.94 87.5467" stroke="#E2EFFF" stroke-width="3" stroke-linecap="round" stroke-linejoin="round"/>
  <path d="M151.401 83.0961C152.663 71.0318 152.754 57.2267 149.746 45.7187C148.746 41.8928 145.199 35.0811 140.592 39.3838C137.986 41.8171 140.062 48.6856 140.918 54.2561C141.789 59.8411 142.253 65.4819 142.305 71.134C140.657 62.1009 140.217 50.8389 133.781 43.5654C131.886 41.4008 126.393 38.6913 124.498 42.5248C122.862 45.8322 126.631 51.0583 127.647 54.135C129.412 59.4784 130.056 61.9495 131.307 70.3885C129.821 64.2542 126.283 49.0375 118.691 46.9259C114.603 45.7906 113.974 49.976 114.728 53.3024C115.061 54.7859 116.38 57.1965 116.577 58.0933" stroke="#E2EFFF" stroke-width="3" stroke-linecap="round" stroke-linejoin="round"/>
  <path d="M154.405 111.271C154.405 111.271 163.411 123.316 167.87 128.72" stroke="#E2EFFF" stroke-width="3" stroke-linecap="round" stroke-linejoin="round"/>
  <path d="M125.249 130.76C125.889 135.365 139.718 151.445 139.718 151.445" stroke="#E2EFFF" stroke-width="3" stroke-linecap="round" stroke-linejoin="round"/>
  <path d="M154.894 143.403C149.734 146.967 144.286 150.105 138.433 151.86C141.99 157.314 146.98 163.27 151.272 168.035C153.167 170.123 157.235 173.968 160.058 174.491C163.256 175.088 167.533 172.765 169.961 171.062C175.349 167.278 178.978 163.929 183.729 159.331C185.718 157.404 188.51 153.73 189.242 151.005C190.132 147.709 189.011 147.259 186.245 144.572C180.293 138.805 175.462 132.886 168.647 127.319C166.805 131.959 160.994 139.187 154.894 143.403Z" stroke="#E2EFFF" stroke-width="3" stroke-linecap="round" stroke-linejoin="round"/>
  <path d="M160.059 174.49C158.975 178.388 159.858 181.972 161.139 184.685C162.552 187.682 166.443 189.332 167.485 192.401C168.413 195.152 167.632 198.078 169.625 200.64C170.955 202.346 177.831 206.596 179.949 206.77" stroke="#E2EFFF" stroke-width="3" stroke-linecap="round" stroke-linejoin="round"/>
  <path d="M189.536 148.989C202.542 150.378 211.972 162.287 218.837 172.312C218.746 168.683 222.319 167.438 225.104 167.672C231.086 168.179 231.715 173.489 234.999 177.254" stroke="#E2EFFF" stroke-width="3" stroke-linecap="round" stroke-linejoin="round"/>
  <path d="M216.174 93.5977C215.712 96.311 212.954 101.041 210.87 102.994C208.362 105.333 203.604 105.424 200.312 105.643C210.734 105.643 208.616 111.815 208.018 119.728C209.241 113.45 209.685 111.323 211.552 109.181C214 106.377 217.466 107.179 220.323 105.98C216.387 106.044 213.86 106.582 213.7 102.271C213.572 99.1606 215.189 96.61 216.174 93.5977Z" stroke="#E2EFFF" stroke-width="3" stroke-linecap="round" stroke-linejoin="round"/>
  <path d="M194.433 38.6903L200.547 33.9902" stroke="#E2EFFF" stroke-width="3" stroke-linecap="round" stroke-linejoin="round"/>
  <path d="M190.249 26.5446L195.22 20.8682" stroke="#E2EFFF" stroke-width="3" stroke-linecap="round" stroke-linejoin="round"/>
  <path d="M135.192 5.96499L136.613 1" stroke="#E2EFFF" stroke-width="3" stroke-linecap="round" stroke-linejoin="round"/>
  <path d="M103.23 13.5109L101.097 7.45605" stroke="#E2EFFF" stroke-width="3" stroke-linecap="round" stroke-linejoin="round"/>
</svg>